<?xml version="1.0" encoding="UTF-8" standalone="no"?>
<svg
   width="800px"
   height="800px"
   viewBox="0 0 512 512"
   version="1.1"
   id="svg1"
   sodipodi:docname="kabuto.svg"
   inkscape:version="1.4 (86a8ad7, 2024-10-11)"
   xmlns:inkscape="http://www.inkscape.org/namespaces/inkscape"
   xmlns:sodipodi="http://sodipodi.sourceforge.net/DTD/sodipodi-0.dtd"
   xmlns="http://www.w3.org/2000/svg"
   xmlns:svg="http://www.w3.org/2000/svg">
  <defs
     id="defs1" />
  <sodipodi:namedview
     id="namedview1"
     pagecolor="#ffffff"
     bordercolor="#000000"
     borderopacity="0.25"
     inkscape:showpageshadow="2"
     inkscape:pageopacity="0.0"
     inkscape:pagecheckerboard="0"
     inkscape:deskcolor="#d1d1d1"
     inkscape:zoom="0.35664698"
     inkscape:cx="321.04576"
     inkscape:cy="904.25551"
     inkscape:window-width="1920"
     inkscape:window-height="1009"
     inkscape:window-x="1358"
     inkscape:window-y="-8"
     inkscape:window-maximized="1"
     inkscape:current-layer="svg1" />
  <style
     id="style1">
    path { fill: #000000; }
  </style>
  <g
     inkscape:groupmode="layer"
     id="layer1"
     inkscape:label="background"
     style="fill:#aa0000" />
  <ellipse
     style="fill:#aa0000;stroke:#000000;stroke-width:4.09741;stroke-linecap:round;stroke-linejoin:round"
     id="path2"
     ry="238.39519"
     rx="240.82964"
     cy="-108.25819"
     cx="349.6315"
     transform="matrix(0.47044786,0.88242779,-0.87264637,0.48835265,0,0)" />
  <path
     d="m 351.35688,34.364525 45.86432,23.211826 c -2.01803,8.059146 -8.43903,20.862789 -18.43746,34.622759 -12.19991,16.8425 -28.98625,35.6905 -46.23124,53.05295 -17.15325,17.45529 -34.94861,33.61072 -49.07482,45.21664 -7.06311,5.75653 -13.30066,10.49174 -17.97882,13.5557 -2.29321,1.48556 -4.21951,2.69258 -5.50372,3.34251 -0.27518,0.0928 -0.27518,0.0928 -0.45864,0.0928 -0.18346,0 -0.18346,0 -0.45864,-0.0928 -1.2842,-0.64993 -3.2105,-1.85695 -5.50372,-3.34251 -4.67816,-3.06396 -10.91571,-7.79917 -17.97882,-13.5557 C 221.46911,178.86278 203.67376,162.70735 186.5205,145.25206 169.27551,127.88961 152.48917,109.04161 140.28926,92.2084 130.29084,78.43914 123.86983,65.635497 121.8518,57.576351 l 45.86433,-23.211826 c 13.39238,27.603503 26.87649,57.695315 40.54406,83.590425 14.86004,28.31843 28.98625,51.71595 47.60717,61.18638 l 3.66914,1.85694 3.66915,-1.85694 c 18.62091,-9.47043 32.74712,-32.86795 47.60717,-61.18638 13.66756,-25.89511 27.15168,-55.996206 40.54406,-83.590425 z M 259.5365,135.41025 c 7.24656,0 14.21794,0.64993 20.8224,1.76409 -7.52174,11.32738 -14.67658,19.96218 -20.8224,24.60454 -6.14582,-4.64236 -13.30065,-13.27716 -20.8224,-24.60454 6.60446,-1.11416 13.57584,-1.76409 20.8224,-1.76409 z m 76.22651,30.17537 c 21.37277,21.07634 32.93058,50.69463 32.93058,80.31292 v 0.55708 C 338.42314,235.31395 299.07155,230.1145 259.5365,230.1145 c -39.53505,0 -78.88664,5.19945 -109.15709,16.34112 v -0.55708 c 0,-29.61829 11.55781,-59.23658 32.93059,-80.31292 14.86004,14.48418 29.53662,27.6685 41.91999,37.78885 7.33829,6.03508 13.85102,11.04883 19.26301,14.57703 2.66013,1.85695 5.04508,3.24966 7.3383,4.36382 2.29321,1.11417 4.03606,2.22834 7.7052,2.22834 3.66915,0 5.41199,-1.11417 7.70521,-2.22834 2.29321,-1.11416 4.67816,-2.50687 7.33829,-4.36382 5.41199,-3.5282 11.92472,-8.54195 19.26302,-14.57703 12.38336,-10.12035 27.05995,-23.30467 41.91999,-37.78885 z m 58.98152,35.56052 c 18.8961,18.56946 28.89452,24.32599 58.52287,34.63204 -11.5578,23.11898 -23.75771,43.73108 -52.28532,56.82255 l -15.86906,-48.2806 c -0.0917,-5.29229 -0.45864,-10.58459 -1.19247,-15.87689 z m -270.41605,0 10.82398,27.2971 c -0.73383,5.2923 -1.10075,10.5846 -1.19248,15.87689 l -15.86905,48.2806 C 89.554147,279.50926 77.354237,258.89716 65.796427,235.77818 95.42478,225.47213 105.4232,219.7156 124.32848,201.14614 Z m 143.4636,45.77372 c 41.36962,0.83562 81.91368,8.07771 107.50597,20.6121 l 26.05094,78.92021 -39.7185,-18.38377 c -3.57742,-21.91196 -5.77891,-42.9883 -5.77891,-54.31567 v -13.55571 l -11.92472,6.03508 c -25.5923,12.99862 -50.9094,20.05502 -76.13478,21.35488 z m -16.51116,0 v 40.66712 c -25.22537,-1.29986 -50.54248,-8.35626 -76.13477,-21.35488 l -11.92473,-6.03508 v 13.55571 c 0,11.32737 -2.20149,32.40371 -5.7789,54.31567 l -39.71851,18.38377 26.05094,-78.92021 c 25.59229,-12.53439 66.13635,-19.77648 107.50597,-20.6121 z m 88.60988,39.73864 c 1.19247,17.2696 4.40297,40.38858 8.80595,62.76478 2.75186,14.29849 6.05409,28.03989 9.6315,39.36726 3.57742,11.42022 6.6962,20.24071 12.75029,26.46148 l 2.47667,2.41403 h 3.39396 c 12.93374,0 35.68244,1.11417 48.341,8.91334 -1.65112,1.29986 -4.40298,2.97112 -7.98039,4.54952 -8.6225,3.71389 -21.92315,7.14924 -38.06739,9.84181 -32.28849,5.478 -76.04305,8.26341 -119.70589,8.26341 -43.66283,0 -87.4174,-2.78541 -119.70588,-8.26341 -16.14424,-2.69257 -29.45407,-6.12792 -38.07656,-9.84181 -3.57742,-1.5784 -6.32928,-3.24966 -7.980395,-4.54952 12.566825,-7.79917 35.416425,-8.91334 48.350165,-8.91334 h 3.39396 l 2.47668,-2.41403 c 6.05409,-6.22077 9.17286,-15.04126 12.75028,-26.46148 3.57742,-11.32737 6.87965,-25.06877 9.63151,-39.36726 4.40297,-22.3762 7.61347,-45.49518 8.80595,-62.76478 53.20261,23.49037 107.50597,23.49037 160.70859,0 z m -186.0257,61.46492 c -2.66013,13.09147 -5.68718,25.62586 -8.80595,35.65336 -2.66013,8.44911 -5.59545,14.20564 -7.43002,17.17676 -10.27361,-0.0928 -25.41801,0 -39.45249,4.73521 l 12.38337,-37.51031 z m 211.3428,0 43.29592,20.05502 12.38337,37.51031 c -14.03448,-4.73521 -29.16971,-4.82806 -39.44332,-4.73521 -1.83457,-2.97112 -4.76989,-8.72765 -7.43002,-17.17676 -3.11877,-10.0275 -6.14582,-22.56189 -8.80595,-35.65336 z"
     id="path1"
     style="stroke-width:0.922863" />
</svg>
